<svg width="34" height="29" viewBox="0 0 34 29" fill="none" xmlns="http://www.w3.org/2000/svg">
<path d="M11.6191 0C17.9087 0.000197724 23.2372 4.96486 23.2373 11.3682C23.2373 13.4109 22.6927 15.306 21.75 16.9414L33.0312 25.2549C33.9201 25.9102 34.0868 27.1442 33.4033 28.0117C32.7198 28.8793 31.4449 29.0515 30.5557 28.3965L19.167 20.0049C17.1182 21.7148 14.4684 22.7362 11.6191 22.7363C5.32944 22.7363 0 17.7717 0 11.3682C9.47132e-05 4.96475 5.32949 3.41255e-05 11.6191 0ZM11.6191 4C7.4115 4.00003 4.0001 7.29891 4 11.3682C4 15.3103 7.20114 18.5291 11.2266 18.7266L11.6191 18.7363C15.8267 18.7361 19.2373 15.4374 19.2373 11.3682C19.2372 7.42604 16.0362 4.20707 12.0107 4.00977L11.6191 4ZM13.6064 15.8203C13.6094 15.9291 13.6093 16.0249 13.6064 16.0322C13.5989 16.0496 13.3417 16.1053 12.4229 16.293C11.1904 16.5466 10.6004 16.6684 10.3301 16.7275C9.97575 16.804 10.0059 16.8175 10.0059 16.5742V16.3662L10.085 16.3486C10.127 16.3347 10.3874 16.2792 10.6592 16.2236C10.9326 16.168 11.5362 16.0426 12.0029 15.9453C12.4698 15.848 13.0209 15.7331 13.2266 15.6914L13.6016 15.6152L13.6064 15.8203ZM13.2607 14.4717C13.4674 14.438 13.4603 14.4341 13.5391 14.6338L13.6084 14.8076L13.542 14.9805C13.5055 15.0749 13.4715 15.1585 13.4658 15.167C13.4602 15.1754 13.2439 15.2113 12.9824 15.2471C12.3274 15.3354 11.6974 15.4198 10.8652 15.5312C10.4818 15.5809 10.1624 15.6181 10.1475 15.6152C10.1404 15.6089 10.1059 15.529 10.0693 15.4365L10.0049 15.2656L10.0771 15.0811L10.1475 14.8936L10.2285 14.8818C10.2721 14.8755 10.7362 14.8116 11.2578 14.7422C12.9644 14.5132 13.1469 14.4906 13.2607 14.4717ZM12.1553 5.93555C12.5541 5.97298 12.891 6.04992 13.2432 6.18555L13.4541 6.27441C13.9385 6.49769 14.3632 6.82451 14.6709 7.22266L14.8193 7.43848C14.8696 7.5183 14.9167 7.60028 14.9482 7.66309L14.9492 7.66406C15.3823 8.53443 15.2666 9.52605 14.6582 10.3018V10.3027L14.5605 10.4209C14.462 10.5338 14.3565 10.6352 14.2178 10.7549C14.1193 10.8403 14.0228 10.9389 13.8975 11.0869C13.6 11.4386 13.4343 11.7113 13.3936 11.8379L13.3926 11.8418V13.3252H13.1973L13.1309 13.5215L12.8701 13.5449L12.834 13.5469L12.835 13.5479C12.8065 13.5505 12.6068 13.5646 12.3975 13.5791C12.1815 13.5941 11.9701 13.6085 11.9238 13.6123C11.8707 13.6166 11.6084 13.6348 11.3477 13.6533H11.3467C11.2144 13.6624 11.091 13.6713 10.999 13.6777C10.9532 13.6809 10.915 13.6836 10.8877 13.6855C10.8628 13.6873 10.8504 13.6883 10.8477 13.6885H10.8389L10.8105 13.6914L10.3818 13.7217V13.3203L10.2197 13.3135V11.8418L10.2188 11.8379C10.2024 11.7873 10.1767 11.73 10.0967 11.6016C9.90512 11.2952 9.60928 10.9416 9.39453 10.7549C9.02918 10.4395 8.78308 10.1244 8.6084 9.72559C8.41411 9.28174 8.35671 8.7991 8.44434 8.32227L8.44336 8.32129C8.61857 7.36095 9.36796 6.57459 10.3672 6.1875V6.18652C10.7255 6.04734 11.0941 5.96379 11.4736 5.93457H11.4775C11.5225 5.93162 11.5725 5.92836 11.5918 5.92676V5.92578C11.6454 5.92109 11.7766 5.92301 11.8711 5.9248C11.9724 5.92673 12.0979 5.93017 12.1553 5.93555ZM10.708 12.9355L10.7441 13.0459H10.7451L10.708 12.9355L10.665 12.9336L10.6201 12.9316L10.708 12.9355ZM12.8252 11.751C12.8174 11.8304 12.8171 11.9643 12.8154 12.2568L12.8125 12.7803L10.791 12.7842L11.8018 12.7832L12.8125 12.7812L12.8164 12.2568C12.8181 11.9642 12.8176 11.8303 12.8252 11.751ZM11.6807 6.86426H11.6768C11.6658 6.86506 11.5969 6.87074 11.5469 6.87402C11.216 6.89997 10.8608 6.99244 10.5801 7.12305C10.2442 7.27976 9.9847 7.47554 9.77734 7.7207C9.57021 7.96599 9.44901 8.22238 9.39453 8.52246C9.39412 8.5254 9.39358 8.53215 9.39258 8.54297C9.39121 8.55776 9.3898 8.57724 9.38867 8.59961C9.38642 8.64442 9.38477 8.69805 9.38477 8.75293C9.38477 8.80781 9.38643 8.86151 9.38867 8.90625C9.3898 8.92853 9.39122 8.94818 9.39258 8.96289C9.39376 8.97563 9.39431 8.98258 9.39453 8.98438L9.44727 9.19824C9.51177 9.40455 9.61371 9.59174 9.76367 9.77344L9.76465 9.77246C9.85095 9.87635 9.91843 9.94538 10.0498 10.0566C10.2436 10.2208 10.4647 10.4696 10.6514 10.7119C10.7895 10.8913 10.9251 11.0882 11.0234 11.2656L11.1094 11.4375C11.1172 11.4558 11.1381 11.504 11.1533 11.5547C11.1712 11.6144 11.1793 11.6713 11.1836 11.7295C11.191 11.8291 11.1904 11.988 11.1904 12.2607V12.3838H11.8008V12.3828L12.415 12.3818L12.416 12.2539C12.4176 11.9783 12.417 11.8156 12.4268 11.7129C12.4416 11.5581 12.4872 11.4735 12.5166 11.4092V11.4082C12.6477 11.1176 12.9611 10.6834 13.2559 10.3584C13.3788 10.223 13.4366 10.1656 13.5703 10.0498H13.5713C13.8296 9.82689 13.9852 9.62224 14.0938 9.38672L14.166 9.19531C14.1868 9.12812 14.2043 9.05812 14.2168 8.98828L14.2178 8.9834C14.2182 8.98001 14.2182 8.97529 14.2188 8.96973C14.22 8.95767 14.2214 8.94193 14.2227 8.92383C14.2252 8.88745 14.2274 8.84376 14.2285 8.79883C14.231 8.70131 14.2286 8.62407 14.2256 8.59766C14.1907 8.28756 14.0627 7.99054 13.8359 7.72168L13.7148 7.58789C13.3049 7.18791 12.7392 6.93501 12.0645 6.87305C12.0399 6.87084 11.9553 6.8673 11.8574 6.86523C11.8115 6.86427 11.7669 6.86336 11.7314 6.86328C11.7003 6.86322 11.6846 6.86421 11.6807 6.86426ZM9.65527 10.4521C9.71764 10.5063 9.78504 10.5708 9.85352 10.6426C9.78519 10.5709 9.71854 10.5062 9.65625 10.4521C9.5742 10.3813 9.49936 10.3114 9.43164 10.2412C9.49926 10.3114 9.57332 10.3814 9.65527 10.4521ZM8.91406 8.09961C8.88112 8.19532 8.85508 8.2931 8.83691 8.39258C8.81857 8.49202 8.80794 8.59196 8.80469 8.69141L8.81543 8.54297C8.82082 8.49311 8.82871 8.44335 8.83789 8.39355C8.85601 8.29422 8.88123 8.19617 8.91406 8.10059V8.09961ZM13.96 7.06055C14.0094 7.10171 14.0568 7.14461 14.1025 7.18848H14.1035C14.0574 7.1443 14.0098 7.10101 13.96 7.05957V7.06055Z" fill="white"/>
</svg>
