<svg width="54" height="38" viewBox="0 0 54 38" fill="none" xmlns="http://www.w3.org/2000/svg">
<g filter="url(#filter0_d_14_5736)">
<path d="M47.6807 25.1992C48.7852 25.1992 49.6806 26.0947 49.6807 27.1992C49.6807 28.3038 48.7852 29.1992 47.6807 29.1992H26.9961C25.8917 29.199 24.9961 28.3037 24.9961 27.1992C24.9961 26.0948 25.8917 25.1994 26.9961 25.1992H47.6807ZM47.6816 12.7998C48.7861 12.8 49.6816 13.6953 49.6816 14.7998C49.6816 15.9043 48.7861 16.7996 47.6816 16.7998H6.31152C5.20698 16.7998 4.31152 15.9044 4.31152 14.7998C4.31152 13.6953 5.20698 12.7998 6.31152 12.7998H47.6816ZM26.9961 0.400391C28.1007 0.400391 28.9961 1.29582 28.9961 2.40039C28.996 3.50492 28.1006 4.40039 26.9961 4.40039H6.31152C5.20701 4.40036 4.31157 3.5049 4.31152 2.40039C4.31152 1.29584 5.20698 0.400423 6.31152 0.400391H26.9961Z" fill="white"/>
</g>
<defs>
<filter id="filter0_d_14_5736" x="0.311523" y="0.400391" width="53.3701" height="36.7988" filterUnits="userSpaceOnUse" color-interpolation-filters="sRGB">
<feFlood flood-opacity="0" result="BackgroundImageFix"/>
<feColorMatrix in="SourceAlpha" type="matrix" values="0 0 0 0 0 0 0 0 0 0 0 0 0 0 0 0 0 0 127 0" result="hardAlpha"/>
<feOffset dy="4"/>
<feGaussianBlur stdDeviation="2"/>
<feComposite in2="hardAlpha" operator="out"/>
<feColorMatrix type="matrix" values="0 0 0 0 0 0 0 0 0 0 0 0 0 0 0 0 0 0 0.25 0"/>
<feBlend mode="normal" in2="BackgroundImageFix" result="effect1_dropShadow_14_5736"/>
<feBlend mode="normal" in="SourceGraphic" in2="effect1_dropShadow_14_5736" result="shape"/>
</filter>
</defs>
</svg>
