<svg width="9" height="9" viewBox="0 0 9 9" fill="none" xmlns="http://www.w3.org/2000/svg">
<g clip-path="url(#clip0_21_503)">
<path d="M4.5 9C2.01863 9 0 6.98138 0 4.5C0 2.01863 2.01863 0 4.5 0C6.98138 0 9 2.01863 9 4.5C9 6.98138 6.98138 9 4.5 9ZM4.5 0.75C2.43225 0.75 0.75 2.43225 0.75 4.5C0.75 6.56775 2.43225 8.25 4.5 8.25C6.56775 8.25 8.25 6.56775 8.25 4.5C8.25 2.43225 6.56775 0.75 4.5 0.75ZM6.375 4.5C6.375 4.29262 6.20738 4.125 6 4.125H4.875V2.25C4.875 2.04262 4.707 1.875 4.5 1.875C4.293 1.875 4.125 2.04262 4.125 2.25V4.5C4.125 4.70738 4.293 4.875 4.5 4.875H6C6.20738 4.875 6.375 4.70738 6.375 4.5Z" fill="currentColor"/>
</g>
<defs>
<clipPath id="clip0_21_503">
<rect width="9" height="9" fill="white"/>
</clipPath>
</defs>
</svg>
