<svg width="20" height="20" viewBox="0 0 20 20" fill="none" xmlns="http://www.w3.org/2000/svg">
<path d="M19.9853 13.3382V12.5055H18.3198V2.09645C18.3198 0.948128 17.3864 0.0146484 16.238 0.0146484H3.74724C2.59892 0.0146484 1.66544 0.948128 1.66544 2.09645V12.5055H0V13.3382H9.57628V17.5018H7.07812C5.9298 17.5018 4.99632 18.4353 4.99632 19.5836V19.9999H5.82904V19.5836C5.82904 18.8949 6.38946 18.3345 7.07812 18.3345H12.9072C13.5958 18.3345 14.1562 18.8949 14.1562 19.5836V19.9999H14.989V19.5836C14.989 18.4353 14.0555 17.5018 12.9072 17.5018H10.409V13.3382H19.9853ZM2.49816 2.09645C2.49816 1.40779 3.05858 0.847369 3.74724 0.847369H16.238C16.9267 0.847369 17.4871 1.40779 17.4871 2.09645V12.5055H2.49816V2.09645Z" fill="#15AAD9"/>
</svg>
