<svg width="44" height="36" viewBox="0 0 44 36" fill="none" xmlns="http://www.w3.org/2000/svg">
<g filter="url(#filter0_i_25_3)">
<path d="M14.8682 2C21.3593 2 26.7363 7.10593 26.7363 13.5439C26.7363 19.9819 21.3593 25.0879 14.8682 25.0879C8.37713 25.0878 3.00004 19.9818 3 13.5439C3 7.10601 8.3771 2.00013 14.8682 2Z" stroke="white" stroke-width="4"/>
<path d="M39.7623 35.136C40.6516 35.7913 41.9266 35.6191 42.6101 34.7514C43.2937 33.8837 43.1269 32.6492 42.2377 31.994L41 33.565L39.7623 35.136ZM25.3007 21.997L24.063 23.568L39.7623 35.136L41 33.565L42.2377 31.994L26.5384 20.426L25.3007 21.997Z" fill="white"/>
</g>
<g filter="url(#filter1_i_25_3)">
<path d="M13.6514 16.644L13.6895 16.6411H13.6934C13.6934 16.6411 13.6983 16.6401 13.71 16.6392C13.7206 16.6383 13.7356 16.6377 13.7539 16.6362C13.7905 16.6333 13.8412 16.6284 13.9023 16.6235L14.3672 16.5874C14.7185 16.5594 15.0644 16.533 15.1318 16.5269C15.1963 16.521 15.4801 16.4993 15.7656 16.4771C16.0479 16.455 16.3088 16.4336 16.3408 16.4302H16.3398L16.3906 16.4253L16.5234 16.4126L16.5625 16.2837L16.6113 16.1196L16.6201 16.0952H16.7803V14.2056L16.7998 14.1372V14.1362C16.8778 13.8636 17.1402 13.4041 17.5391 12.8735L17.7822 12.5698C17.858 12.4817 17.9297 12.4039 18.0039 12.3315L18.165 12.1704C18.313 12.0157 18.4267 11.8763 18.5439 11.7085C19.2723 10.664 19.4032 9.35 18.8926 8.1958H18.8916C18.855 8.11372 18.7983 8.00292 18.7373 7.89404L18.5596 7.60205C18.1879 7.06081 17.6671 6.60802 17.0645 6.29541L16.8018 6.17041C16.3615 5.97963 15.9411 5.87124 15.4355 5.81787C15.373 5.81127 15.2186 5.80521 15.0801 5.80225C14.9452 5.79937 14.7921 5.79822 14.7412 5.80322V5.8042C14.7177 5.8064 14.6475 5.81213 14.583 5.81689H14.5801C14.2232 5.84779 13.8751 5.9219 13.5342 6.03955L13.1963 6.17139C12.0203 6.68335 11.165 7.67111 10.8936 8.83545L10.8477 9.0708C10.7442 9.70199 10.8111 10.3401 11.041 10.9312C11.2482 11.4635 11.5397 11.8893 11.9951 12.3315L12.1182 12.4585C12.4137 12.7798 12.7627 13.2638 13 13.6909C13.1136 13.8961 13.1652 14.0139 13.2002 14.1362V14.1372L13.2197 14.2056V16.0942L13.3848 16.103L13.3936 16.1323L13.3945 16.1343C13.4162 16.2054 13.4248 16.2411 13.4297 16.2671C13.4337 16.2886 13.4355 16.3066 13.4355 16.3433V16.6616L13.6514 16.644ZM13.8467 14.4067C13.8458 14.2845 13.8431 14.1987 13.8389 14.1343C13.8344 14.0662 13.8272 14.0131 13.8135 13.9614L13.7676 13.8296C13.662 13.5556 13.4446 13.1818 13.2041 12.8306C12.9629 12.4783 12.6853 12.1299 12.4531 11.9087C12.2651 11.7296 12.161 11.6108 12.0312 11.4351C11.7265 11.0201 11.5425 10.5798 11.46 10.063C11.4485 9.99047 11.4414 9.82354 11.4414 9.64209C11.4414 9.46044 11.4495 9.29304 11.4609 9.22021H11.46C11.5447 8.69552 11.7364 8.24725 12.0508 7.82861C12.3628 7.41359 12.7483 7.08818 13.2334 6.8335C13.6458 6.61758 14.159 6.46839 14.6367 6.42725H14.6357L14.8057 6.41357L14.8076 6.4126H14.8164C14.8218 6.41237 14.8286 6.41179 14.8369 6.41162C14.8539 6.41128 14.8755 6.41156 14.9004 6.41162C14.9502 6.41174 15.0116 6.41209 15.0742 6.41357C15.2027 6.41662 15.3259 6.42266 15.3711 6.42725C16.3303 6.52624 17.1572 6.93289 17.7666 7.60205L17.9492 7.82861L18.0723 8.00342C18.3429 8.41777 18.5053 8.8765 18.5537 9.36182C18.5609 9.4327 18.563 9.57361 18.5596 9.72217C18.5562 9.87155 18.5478 10.0073 18.5381 10.0688C18.4994 10.3123 18.4315 10.5568 18.3457 10.7671C18.1756 11.1825 17.9336 11.5329 17.5596 11.896C17.3928 12.0583 17.3255 12.133 17.1699 12.3257C16.836 12.7397 16.4963 13.2623 16.3145 13.6411L16.2471 13.7935C16.2038 13.9006 16.1702 13.9651 16.1572 14.1187C16.1463 14.248 16.1468 14.4615 16.1445 14.8921L16.1416 15.479L14.9932 15.4819V15.4829L13.8467 15.4839V14.4067Z" fill="white" stroke="white" stroke-width="0.4"/>
<path d="M12.8617 19.8532C12.9106 19.8477 12.9806 19.8392 13.0668 19.8278C13.2397 19.8051 13.4769 19.7718 13.7357 19.7341C14.8443 19.5671 15.6835 19.4406 16.5561 19.3083C16.7297 19.2816 16.8886 19.2556 17.0043 19.2341C17.0621 19.2233 17.1088 19.2141 17.141 19.2067C17.1484 19.205 17.1551 19.2032 17.1606 19.2018L17.183 19.1403C17.2011 19.09 17.2242 19.0234 17.2484 18.9528L17.3295 18.7175L17.2455 18.4763C17.2188 18.4 17.2007 18.3477 17.184 18.3102C17.1671 18.2724 17.1557 18.2623 17.1498 18.2585C17.1455 18.2557 17.1357 18.2501 17.102 18.2526L16.9496 18.278C16.7964 18.3067 16.552 18.3412 14.2787 18.6843C13.5841 18.7882 12.9667 18.8828 12.9086 18.8923H12.9096L12.8393 18.905L12.7592 19.1472H12.7582L12.6703 19.404L12.7494 19.6364C12.7736 19.7053 12.7967 19.7695 12.8148 19.8171C12.8207 19.8325 12.8259 19.8459 12.8305 19.8571C12.8394 19.8562 12.8501 19.8545 12.8617 19.8532Z" fill="white" stroke="white" stroke-width="0.133333"/>
<path d="M12.7533 21.592L13.017 21.5286C13.3776 21.4399 14.1644 21.2573 15.8061 20.8772C16.4182 20.7365 16.8091 20.6453 17.0482 20.5862C17.1679 20.5566 17.2484 20.5351 17.2992 20.5198C17.3126 20.5157 17.3238 20.513 17.3324 20.51C17.3327 20.4951 17.3334 20.4759 17.3334 20.4534C17.3334 20.3961 17.3325 20.3184 17.3305 20.2356V20.2346L17.3256 20.01L16.9057 20.1057C16.6319 20.1682 15.8979 20.3407 15.2758 20.4866C14.6539 20.6324 13.8499 20.8192 13.4857 20.9026C13.3049 20.9442 13.128 20.986 12.9897 21.0198L12.7299 21.0881L12.7231 21.0901L12.6674 21.1047V21.3645C12.6674 21.4597 12.665 21.5206 12.6684 21.5647C12.6719 21.6116 12.6806 21.605 12.6713 21.5999C12.6694 21.5989 12.6728 21.6011 12.6879 21.6008C12.7027 21.6005 12.7236 21.5979 12.7533 21.592Z" fill="white" stroke="white" stroke-width="0.133333"/>
</g>
<defs>
<filter id="filter0_i_25_3" x="1" y="0" width="43.0309" height="36.5338" filterUnits="userSpaceOnUse" color-interpolation-filters="sRGB">
<feFlood flood-opacity="0" result="BackgroundImageFix"/>
<feBlend mode="normal" in="SourceGraphic" in2="BackgroundImageFix" result="shape"/>
<feColorMatrix in="SourceAlpha" type="matrix" values="0 0 0 0 0 0 0 0 0 0 0 0 0 0 0 0 0 0 127 0" result="hardAlpha"/>
<feOffset dx="1" dy="1"/>
<feGaussianBlur stdDeviation="1.2"/>
<feComposite in2="hardAlpha" operator="arithmetic" k2="-1" k3="1"/>
<feColorMatrix type="matrix" values="0 0 0 0 0 0 0 0 0 0 0 0 0 0 0 0 0 0 0.25 0"/>
<feBlend mode="normal" in2="shape" result="effect1_innerShadow_25_3"/>
</filter>
<filter id="filter1_i_25_3" x="10.6" y="5.60004" width="8.80001" height="16.0672" filterUnits="userSpaceOnUse" color-interpolation-filters="sRGB">
<feFlood flood-opacity="0" result="BackgroundImageFix"/>
<feBlend mode="normal" in="SourceGraphic" in2="BackgroundImageFix" result="shape"/>
<feColorMatrix in="SourceAlpha" type="matrix" values="0 0 0 0 0 0 0 0 0 0 0 0 0 0 0 0 0 0 127 0" result="hardAlpha"/>
<feOffset/>
<feGaussianBlur stdDeviation="0.3"/>
<feComposite in2="hardAlpha" operator="arithmetic" k2="-1" k3="1"/>
<feColorMatrix type="matrix" values="0 0 0 0 0 0 0 0 0 0 0 0 0 0 0 0 0 0 0.25 0"/>
<feBlend mode="normal" in2="shape" result="effect1_innerShadow_25_3"/>
</filter>
</defs>
</svg>
