<svg width="43" height="44" viewBox="0 0 43 44" fill="none" xmlns="http://www.w3.org/2000/svg">
<g filter="url(#filter0_d_19_5741)">
<mask id="path-1-inside-1_19_5741" fill="white">
<path d="M31.3984 20.1045C35.2205 19.0461 39 21.9217 39 25.8877V36H4V25.8877C4 21.9217 7.77945 19.0461 11.6016 20.1045L20.9658 22.6982C21.3151 22.795 21.6849 22.795 22.0342 22.6982L31.3984 20.1045ZM21.5 0C27.0646 0 31.576 4.50336 31.5762 10.0586C31.5762 15.6139 27.0647 20.1172 21.5 20.1172C15.9353 20.1172 11.4238 15.6139 11.4238 10.0586C11.424 4.50336 15.9354 2.57274e-07 21.5 0Z"/>
</mask>
<path d="M31.3984 20.1045C35.2205 19.0461 39 21.9217 39 25.8877V36H4V25.8877C4 21.9217 7.77945 19.0461 11.6016 20.1045L20.9658 22.6982C21.3151 22.795 21.6849 22.795 22.0342 22.6982L31.3984 20.1045ZM21.5 0C27.0646 0 31.576 4.50336 31.5762 10.0586C31.5762 15.6139 27.0647 20.1172 21.5 20.1172C15.9353 20.1172 11.4238 15.6139 11.4238 10.0586C11.424 4.50336 15.9354 2.57274e-07 21.5 0Z" fill="white" fill-opacity="0.45" shape-rendering="crispEdges"/>
<path d="M31.3984 20.1045L30.8647 18.177L30.8646 18.1771L31.3984 20.1045ZM39 36V38H41V36H39ZM4 36H2V38H4V36ZM11.6016 20.1045L12.1354 18.1771L12.1353 18.177L11.6016 20.1045ZM20.9658 22.6982L20.432 24.6257L20.4321 24.6257L20.9658 22.6982ZM22.0342 22.6982L22.5679 24.6257L22.568 24.6257L22.0342 22.6982ZM21.5 0L21.5 -2L21.5 -2L21.5 0ZM31.5762 10.0586L33.5762 10.0586L33.5762 10.0585L31.5762 10.0586ZM21.5 20.1172L21.5 22.1172H21.5V20.1172ZM11.4238 10.0586L9.42383 10.0585V10.0586H11.4238ZM31.3984 20.1045L31.9322 22.032C34.48 21.3264 37 23.2434 37 25.8877H39H41C41 20.6001 35.9611 16.7657 30.8647 18.177L31.3984 20.1045ZM39 25.8877H37V36H39H41V25.8877H39ZM39 36V34H4V36V38H39V36ZM4 36H6V25.8877H4H2V36H4ZM4 25.8877H6C6 23.2434 8.52002 21.3264 11.0678 22.032L11.6016 20.1045L12.1353 18.177C7.03889 16.7657 2 20.6001 2 25.8877H4ZM11.6016 20.1045L11.0677 22.0319L20.432 24.6257L20.9658 22.6982L21.4997 20.7708L12.1354 18.1771L11.6016 20.1045ZM20.9658 22.6982L20.4321 24.6257C21.1306 24.8191 21.8694 24.8191 22.5679 24.6257L22.0342 22.6982L21.5004 20.7708H21.4996L20.9658 22.6982ZM22.0342 22.6982L22.568 24.6257L31.9323 22.0319L31.3984 20.1045L30.8646 18.1771L21.5003 20.7708L22.0342 22.6982ZM21.5 0V2C25.9633 2 29.5761 5.61124 29.5762 10.0586L31.5762 10.0586L33.5762 10.0585C33.576 3.39549 28.1659 -2 21.5 -2V0ZM31.5762 10.0586H29.5762C29.5762 14.506 25.9635 18.1172 21.5 18.1172V20.1172V22.1172C28.1659 22.1172 33.5762 16.7218 33.5762 10.0586H31.5762ZM21.5 20.1172L21.5 18.1172C17.0365 18.1172 13.4238 14.506 13.4238 10.0586H11.4238H9.42383C9.42383 16.7218 14.8341 22.1172 21.5 22.1172L21.5 20.1172ZM11.4238 10.0586L13.4238 10.0586C13.4239 5.61124 17.0367 2 21.5 2L21.5 0L21.5 -2C14.8341 -2 9.42398 3.39549 9.42383 10.0585L11.4238 10.0586Z" fill="white" mask="url(#path-1-inside-1_19_5741)"/>
</g>
<defs>
<filter id="filter0_d_19_5741" x="0" y="0" width="43" height="44" filterUnits="userSpaceOnUse" color-interpolation-filters="sRGB">
<feFlood flood-opacity="0" result="BackgroundImageFix"/>
<feColorMatrix in="SourceAlpha" type="matrix" values="0 0 0 0 0 0 0 0 0 0 0 0 0 0 0 0 0 0 127 0" result="hardAlpha"/>
<feOffset dy="4"/>
<feGaussianBlur stdDeviation="2"/>
<feComposite in2="hardAlpha" operator="out"/>
<feColorMatrix type="matrix" values="0 0 0 0 0 0 0 0 0 0 0 0 0 0 0 0 0 0 0.25 0"/>
<feBlend mode="normal" in2="BackgroundImageFix" result="effect1_dropShadow_19_5741"/>
<feBlend mode="normal" in="SourceGraphic" in2="effect1_dropShadow_19_5741" result="shape"/>
</filter>
</defs>
</svg>
